<svg id="Layer_1" data-name="Layer 1" xmlns="http://www.w3.org/2000/svg" viewBox="0 0 1000 1000"><defs><style>.cls-1{fill:#41a948;}.cls-2{fill:#fff;}</style></defs><title>mongo-express-logo</title><circle class="cls-1" cx="500" cy="500" r="500"/><g id="Leaf"><path class="cls-2" d="M379.1,512.67V473.8c1.45-.33.88-1.57,0.9-2.36a206.3,206.3,0,0,1,2.12-21.19Q384.19,435,387.63,420a320.16,320.16,0,0,1,14.56-47.08,297.2,297.2,0,0,1,23.86-47.48c4.55-7.3,9.26-14.49,14.48-21.33a287.6,287.6,0,0,1,18.92-22.64A278.87,278.87,0,0,1,484.8,257.7a34.81,34.81,0,0,0,10-13.15c1.77-4.15,2.16-8.52,2.58-13.41a65.22,65.22,0,0,1,2.85,6.12,182.37,182.37,0,0,0,14.9,27.61c3.81,5.68,8.94,10.16,13.59,15.05,8.43,8.88,16.82,17.8,24.41,27.4a305.5,305.5,0,0,1,34.39,54.29A368.87,368.87,0,0,1,607,409.77c7.36,22.38,12.28,45.22,13.48,68.8a287,287,0,0,1-.34,37.11c-0.68,8.67-1.61,17.31-3.11,25.86a251.92,251.92,0,0,1-32.71,87.18,248.62,248.62,0,0,1-25.57,34.94c-10.17,11.58-20.88,22.61-33.33,31.73-5.87,4.3-9.85,9.61-11.71,16.52a83.53,83.53,0,0,0-2.34,18.94c-0.24,7.19-.2,14.39-0.17,21.59,0,4.93.26,9.85,0.4,14.78,0,1.2.27,2.08-1.76,1.45-3.47-1.07-7-2-10.41-3.18a1.71,1.71,0,0,1-1.39-2c0.11-5.12-.12-10.23-0.44-15.33-0.93-14.69-2.58-29.26-7.72-43.2a5.34,5.34,0,0,0-1.81-2.74,203.63,203.63,0,0,1-23.28-19.73,304,304,0,0,1-34-38.54,287.18,287.18,0,0,1-28-46.3,246.21,246.21,0,0,1-17.41-49.07A202.37,202.37,0,0,1,380,514C380,513.38,380.1,512.63,379.1,512.67Z"/></g></svg>